Coordinates
version=1
nRows=11
nColumns=36
inDegrees=yes

Units are S.I. units (second, meters, Newtons, ...)
If the header above contains a line with 'inDegrees', this indicates whether rotational values are in degrees (yes) or radians (no).

endheader
time	pelvis_tilt	pelvis_list	pelvis_rotation	pelvis_tx	pelvis_ty	pelvis_tz	hip_flexion_r	hip_adduction_r	hip_rotation_r	knee_angle_r	knee_angle_r_beta	ankle_angle_r	subtalar_angle_r	mtp_angle_r	hip_flexion_l	hip_adduction_l	hip_rotation_l	knee_angle_l	knee_angle_l_beta	ankle_angle_l	subtalar_angle_l	mtp_angle_l	lumbar_extension	lumbar_bending	lumbar_rotation	arm_flex_r	arm_add_r	arm_rot_r	elbow_flex_r	pro_sup_r	arm_flex_l	arm_add_l	arm_rot_l	elbow_flex_l	pro_sup_l
     29.65000000	     -4.41114271	      3.38835276	    -11.27406086	      0.70760451	      0.93205159	      0.70357363	     30.53865699	     -1.31445026	      4.63986805	     56.99623708	      0.99477200	      6.79918948	    -14.09856429	     -7.49999987	      9.75637863	      4.58895568	     -2.54767002	     16.06923768	      0.28046111	     12.32000449	     -6.47370065	     -7.49999987	      2.67008904	     -3.17821644	      0.68262719	     -1.76908369	     -8.11529982	     -1.26671202	     14.85565519	     96.43180694	      8.85868028	    -10.82146334	     10.22654915	     17.90701297	     93.41828588
     29.66666670	     -4.57123449	      3.12367596	    -11.19772373	      0.70786258	      0.92807523	      0.70246877	     31.34794835	     -1.03212124	      4.34186478	     52.35742622	      0.91380948	      7.32327084	    -13.76796017	     -7.49999987	      8.35099197	      4.50939906	     -2.41178162	     15.36362365	      0.26814582	     12.89004816	     -6.17752794	     -7.49999987	      3.08713683	     -2.75746306	      0.12304834	     -2.88150777	     -8.25717875	     -1.47673786	     14.27627060	     96.42454198	      9.18554433	    -10.89379272	      9.99265785	     18.30392115	     93.38761180
     29.68333330	     -4.64259081	      2.90945951	    -11.12700153	      0.70805604	      0.92494018	      0.70159398	     31.91847497	     -0.90810806	      4.03547497	     47.39614099	      0.82721871	      7.47849700	    -13.31593985	     -7.49999987	      6.88757782	      4.46505667	     -2.36375531	     14.72441031	      0.25698944	     13.52102786	     -5.81726843	     -7.49999987	      3.45321507	     -2.45322980	     -0.35428101	     -3.89055444	     -8.36177582	     -1.73991018	     13.82760446	     96.39802604	      9.41806857	    -10.97349361	      9.71935510	     18.73312716	     93.34711521
     29.70000000	     -4.06679433	      2.49583370	    -11.06738034	      0.70787085	      0.92362901	      0.70099290	     31.57688104	     -0.76500010	      3.71099797	     42.08218724	      0.73447272	      7.18109421	    -13.11932761	     -7.49999987	      4.78612579	      4.25621256	     -2.64839971	     14.25790179	      0.24884733	     14.75232465	     -4.69767963	     -7.49999987	      2.60239158	     -2.02460011	     -1.15185648	     -4.23931409	     -8.49670923	     -2.92510060	     13.82803885	     95.61344516	      9.48179332	    -11.10857679	      8.56439853	     20.10875048	     92.63525458
     29.71666670	     -4.16742021	      2.40465745	    -10.97738086	      0.70812375	      0.92266143	      0.70103382	     31.89289349	     -0.85669920	      3.45924667	     36.61011267	      0.63896701	      6.53232535	    -12.62928595	     -7.49999987	      3.52282927	      4.31420624	     -2.37723468	     13.90956272	      0.24276767	     15.44398151	     -5.04132410	     -7.49999987	      2.89839334	     -1.92488477	     -1.63410927	     -4.88171804	     -8.62239787	     -3.99070931	     13.97202860	     93.73957569	      9.48936279	    -11.18257179	      7.32126446	     20.91921631	     91.06245130
     29.73333330	     -4.22686916	      2.34678338	    -10.98544451	      0.70871230	      0.92355610	      0.70201957	     31.93471858	     -0.93320382	      3.17814046	     30.77936040	      0.53720118	      5.77134135	    -11.62918350	     -7.49999987	      2.21157677	      4.35908145	     -2.76820887	     13.52545242	      0.23606368	     16.25096008	     -4.88452305	     -7.49999987	      3.05677008	     -1.89725190	     -2.08716892	     -5.37193416	     -8.75657753	     -4.65412756	     14.53553684	     92.70356065	      9.40570299	    -11.37555728	      6.57127386	     21.81056134	     90.27809769
     29.75000000	     -3.91386654	      2.25464116	    -10.76751333	      0.70927241	      0.92541442	      0.70297690	     31.26796426	     -1.08830971	      2.66991353	     24.61116561	      0.42954587	      4.89046360	    -10.36669280	     -7.49999987	      0.57902542	      4.41584646	     -3.28092859	     13.21422306	      0.23063170	     17.65000584	     -3.97173267	     -7.49999987	      2.74354304	     -1.98095688	     -2.60021971	     -5.54458802	     -8.73710709	     -5.43008630	     14.81420962	     91.64228097	      9.29688632	    -11.63208820	      5.75982163	     23.14593375	     89.35547835
     29.76666670	     -3.88848740	      2.38950229	    -10.46454755	      0.70953122	      0.92257830	      0.70320332	     30.93490370	     -1.33987546	      2.18956201	     18.68831170	      0.32617257	      4.63985542	     -8.56426144	     -7.49999987	     -0.58480773	      4.68577019	     -3.42732409	     13.01375770	      0.22713292	     18.69537233	     -3.87280435	     -7.49999987	      2.84685076	     -2.26170811	     -3.09797425	     -5.86636840	     -8.67751077	     -5.67996044	     15.25422242	     90.78922829	      9.19701050	    -11.80861589	      5.14757897	     23.98625527	     88.50895929
     29.78333330	     -3.96848955	      2.56923160	    -10.03759316	      0.70920557	      0.91543099	      0.70232745	     30.83819743	     -1.58904790	      1.80773151	     13.39141803	      0.23372434	      5.24150533	     -6.42951446	     -7.49999987	     -1.45868581	      4.94412185	     -3.46365747	     13.14558004	      0.22943365	     19.80452858	     -3.75182927	     -7.49999987	      3.01260287	     -2.54717466	     -3.58563970	     -6.13072208	     -8.63381924	     -5.41745875	     15.61079189	     89.39842799	      9.08037221	    -11.93029208	      4.92399542	     24.75180303	     87.20196421
     29.80000000	     -4.20214037	      2.62776103	     -9.60772415	      0.70939258	      0.90770101	      0.70138710	     31.07294288	     -1.62974146	      1.80065495	      9.13437697	      0.15942495	      6.39331598	     -4.52820806	     -7.49999987	     -2.11261059	      4.99964119	     -3.56760354	     13.61223797	      0.23757837	     20.88134369	     -3.48904795	     -7.49999987	      3.23802888	     -2.60526041	     -3.95023605	     -6.41593418	     -8.67817305	     -5.06891500	     15.99353270	     87.81310311	      8.98576549	    -11.88803115	      4.73160481	     25.44671240	     85.77107687
     29.81666670	     -4.49290742	      2.39267376	     -9.25716952	      0.71149413	      0.90215210	      0.70155822	     31.41499357	     -1.32327704	      1.99519236	      6.29946907	      0.10994648	      7.75006174	     -3.08532506	     -7.49999987	     -2.80336418	      4.69246091	     -3.74140711	     14.31891049	      0.24991213	     21.68315135	     -3.26850706	     -7.49999987	      3.45772791	     -2.26789212	     -4.22764114	     -6.67634289	     -8.85199763	     -4.66603218	     16.31986740	     86.53260258	      8.97945747	    -11.68966570	      4.59848813	     25.81037006	     84.66998619
